<svg width="195" height="195" viewBox="0 0 195 195" fill="none" xmlns="http://www.w3.org/2000/svg">
<path d="M97.5 194.583C43.8809 194.583 0.416687 151.119 0.416687 97.5C0.416687 43.8808 43.8809 0.416626 97.5 0.416626C151.119 0.416626 194.583 43.8808 194.583 97.5C194.583 151.119 151.119 194.583 97.5 194.583ZM97.5 175.167C118.098 175.167 137.853 166.984 152.419 152.419C166.984 137.853 175.167 118.098 175.167 97.5C175.167 76.9015 166.984 57.1467 152.419 42.5813C137.853 28.016 118.098 19.8333 97.5 19.8333C76.9015 19.8333 57.1467 28.016 42.5814 42.5813C28.0161 57.1467 19.8334 76.9015 19.8334 97.5C19.8334 118.098 28.0161 137.853 42.5814 152.419C57.1467 166.984 76.9015 175.167 97.5 175.167ZM59.4434 130.45C58.941 129.277 58.6747 128.017 58.6594 126.741C58.6442 125.465 58.8804 124.199 59.3546 123.014C59.8288 121.829 60.5317 120.75 61.4231 119.837C62.3145 118.924 63.377 118.196 64.5499 117.693C65.7229 117.191 66.9832 116.925 68.2591 116.909C69.535 116.894 70.8013 117.13 71.9859 117.605C73.1705 118.079 74.2501 118.782 75.163 119.673C76.0759 120.564 76.8044 121.627 77.3067 122.8C79.0038 126.748 81.8211 130.112 85.4101 132.476C88.9992 134.84 93.2024 136.1 97.5 136.1C101.798 136.1 106.001 134.84 109.59 132.476C113.179 130.112 115.996 126.748 117.693 122.8C118.196 121.627 118.924 120.564 119.837 119.673C120.75 118.782 121.83 118.079 123.014 117.605C124.199 117.13 125.465 116.894 126.741 116.909C128.017 116.925 129.277 117.191 130.45 117.693C131.623 118.196 132.686 118.924 133.577 119.837C134.468 120.75 135.171 121.829 135.645 123.014C136.12 124.199 136.356 125.465 136.341 126.741C136.325 128.017 136.059 129.277 135.557 130.45C132.367 137.901 127.061 144.252 120.296 148.715C113.531 153.178 105.605 155.557 97.5 155.557C89.3953 155.557 81.4689 153.178 74.7038 148.715C67.9387 144.252 62.6325 137.901 59.4434 130.45ZM68.375 58.6666C70.9498 58.6666 73.4192 59.6895 75.2398 61.5101C77.0605 63.3308 78.0834 65.8001 78.0834 68.375V87.7916C78.0834 90.3664 77.0605 92.8358 75.2398 94.6564C73.4192 96.4771 70.9498 97.5 68.375 97.5C65.8002 97.5 63.3309 96.4771 61.5102 94.6564C59.6895 92.8358 58.6667 90.3664 58.6667 87.7916V68.375C58.6667 65.8001 59.6895 63.3308 61.5102 61.5101C63.3309 59.6895 65.8002 58.6666 68.375 58.6666ZM126.625 58.6666C129.2 58.6666 131.669 59.6895 133.49 61.5101C135.311 63.3308 136.333 65.8001 136.333 68.375V87.7916C136.333 90.3664 135.311 92.8358 133.49 94.6564C131.669 96.4771 129.2 97.5 126.625 97.5C124.05 97.5 121.581 96.4771 119.76 94.6564C117.94 92.8358 116.917 90.3664 116.917 87.7916V68.375C116.917 65.8001 117.94 63.3308 119.76 61.5101C121.581 59.6895 124.05 58.6666 126.625 58.6666Z" fill="#084924"/>
</svg>
