<svg xmlns="http://www.w3.org/2000/svg" viewBox="0 0 32 32"><title>Document</title><g id="_21-30" data-name="21-30"><g id="Document"><path d="M25.535,6.121,22.879,3.465A4.969,4.969,0,0,0,19.343,2H10A5.006,5.006,0,0,0,5,7V25a5.006,5.006,0,0,0,5,5H22a5.006,5.006,0,0,0,5-5V9.657A4.969,4.969,0,0,0,25.535,6.121ZM24.121,7.535A3.042,3.042,0,0,1,24.5,8H22a1,1,0,0,1-1-1V4.5a3.042,3.042,0,0,1,.465.38ZM22,28H10a3,3,0,0,1-3-3V7a3,3,0,0,1,3-3h9V7a3,3,0,0,0,3,3h3V25A3,3,0,0,1,22,28Z" id="id_106" style="fill: rgb(255, 255, 255);"></path><path d="M11,11h4a1,1,0,0,0,0-2H11a1,1,0,0,0,0,2Z" id="id_107" style="fill: rgb(255, 255, 255);"></path><path d="M21,13H11a1,1,0,0,0,0,2H21a1,1,0,0,0,0-2Z" id="id_108" style="fill: rgb(255, 255, 255);"></path><path d="M21,17H11a1,1,0,0,0,0,2H21a1,1,0,0,0,0-2Z" id="id_109" style="fill: rgb(255, 255, 255);"></path><path d="M19,21H11a1,1,0,0,0,0,2h8a1,1,0,0,0,0-2Z" id="id_110" style="fill: rgb(255, 255, 255);"></path></g></g></svg>